#!OML:ASF E:\Steps\Project 1\Capture day 1\Session 2\Subject.ASF
:FULLY-SPECIFIED
:DEGREES
218
root 7.9068 15.2422 19.3929 -148.243 9.89497 175.633
lowerback 3.34858 -3.00589 -3.1792
upperback 6.82351 -3.46962 -0.856324
thorax 5.34654 -1.6556 0.852045
lowerneck -1.598 -4.55222 1.29808
upperneck 7.58068 -6.14845 1.79176
head 2.69482 -2.91778 0.179045
rclavicle -1.78906e-014 -8.34896e-015
rhumerus -14.0065 14.0226 -60.3264
rradius 50.9012
rwrist -11.7654
rhand -9.37099 -44.0246
rfingers 7.12502
rthumb 16.5893 -73.3355
lclavicle -1.78906e-014 -8.34896e-015
lhumerus -11.5336 -19.7712 68.0777
lradius 56.46
lwrist 8.23922
lhand -27.2719 -14.6685
lfingers 7.12502
lthumb -0.682689 15.3102
rfemur -84.8581 -14.0743 7.79705
rtibia 78.7483
rfoot -32.7866 -8.24178
rtoes -31.8154
lfemur -24.0749 -11.8343 10.0264
ltibia 20.6533
lfoot 2.06506 27.2262
ltoes -11.1266
219
root 8.00284 15.3001 19.3711 -148.332 9.7952 174.978
lowerback 3.41224 -3.11216 -3.08014
upperback 6.868 -3.58736 -1.08111
thorax 5.34065 -1.69568 0.565112
lowerneck -1.58252 -4.45145 1.22319
upperneck 7.59616 -6.00336 1.71393
head 2.69626 -2.84929 0.171248
rclavicle 3.65764e-014 -2.3059e-014
rhumerus -13.2958 13.6979 -60.0885
rradius 50.6173
rwrist -11.8377
rhand -9.06153 -45.7798
rfingers 7.12502
rthumb 16.8872 -75.0656
lclavicle 3.65764e-014 -2.3059e-014
lhumerus -11.6779 -19.3194 67.918
lradius 56.9865
lwrist 8.52578
lhand -27.834 -15.2533
lfingers 7.12502
lthumb -1.22561 14.723
rfemur -84.4825 -14.0652 7.38723
rtibia 78.6975
rfoot -33.0377 -8.42095
rtoes -31.3895
lfemur -23.6426 -12.4855 9.94795
ltibia 18.804
lfoot 3.86817 28.6173
ltoes -4.8486
220
root 8.10865 15.3603 19.3546 -148.082 9.6554 174.263
lowerback 3.23177 -3.16917 -3.08245
upperback 6.77565 -3.65408 -1.3109
thorax 5.33188 -1.72251 0.321225
lowerneck -1.56466 -4.50037 1.269
upperneck 7.61265 -6.06784 1.69593
head 2.69654 -2.87999 0.156359
rclavicle 2.22639e-014 -1.59028e-015
rhumerus -12.6072 13.0303 -59.9901
rradius 50.2195
rwrist -11.8593
rhand -9.77783 -44.2626
rfingers 7.12502
rthumb 16.1976 -73.6059
lclavicle 2.22639e-014 -1.59028e-015
lhumerus -11.8838 -19.1933 67.7381
lradius 57.6103
lwrist 8.75633
lhand -28.2148 -14.7269
lfingers 7.12502
lthumb -1.59337 15.2468
rfemur -84.6056 -14.0241 6.97015
rtibia 78.8212
rfoot -33.3131 -8.82961
rtoes -30.7679
lfemur -23.6289 -13.2098 10.0655
ltibia 16.9117
lfoot 5.31248 30.2043
ltoes 2.34231
221
root 8.21753 15.4275 19.3252 -148.019 9.40052 173.586
lowerback 3.32055 -3.133 -2.94599
upperback 6.68622 -3.59587 -1.59072
thorax 5.15628 -1.67412 -0.033535
lowerneck -1.56668 -4.82069 1.4692
upperneck 7.69289 -6.52167 1.95845
head 2.72874 -3.08942 0.192058
rclavicle 2.26615e-014 -1.78906e-015
rhumerus -12.472 12.0947 -59.9974
rradius 50.1205
rwrist -11.8041
rhand -9.31812 -45.7416
rfingers 7.12502
rthumb 16.6402 -75.0483
lclavicle 2.26615e-014 -1.78906e-015
lhumerus -12.094 -19.3667 67.578
lradius 58.3027
lwrist 8.95749
lhand -28.4837 -14.0683
lfingers 7.12502
lthumb -1.85303 15.9034
rfemur -84.2262 -14.097 6.59183
rtibia 78.4373
rfoot -33.3396 -9.00713
rtoes -30.2376
lfemur -23.4467 -14.3995 10.2507
ltibia 14.9888
lfoot 6.35165 32.0812
ltoes 10.117
222
root 8.33105 15.5017 19.3032 -147.8 8.97681 172.907
lowerback 3.39428 -3.07236 -2.83902
upperback 6.57852 -3.51102 -1.80745
thorax 4.97687 -1.61765 -0.306904
lowerneck -1.88065 -4.76021 1.80147
upperneck 8.01581 -6.44945 1.7573
head 2.8759 -3.03919 0.0616719
rclavicle 9.34288e-015 -8.54774e-015
rhumerus -12.488 10.9007 -59.9957
rradius 50.0282
rwrist -11.5972
rhand -9.28697 -45.1412
rfingers 7.12502
rthumb 16.6702 -74.4454
lclavicle 9.34288e-015 -8.54774e-015
lhumerus -12.0819 -19.597 67.4429
lradius 58.9433
lwrist 9.57655
lhand -28.3204 -13.7811
lfingers 7.12502
lthumb -1.69534 16.1919
rfemur -83.8949 -14.3103 6.36664
rtibia 77.9943
rfoot -33.3257 -9.29726
rtoes -30.2578
lfemur -23.6232 -15.5555 10.6247
ltibia 13.205
lfoot 7.28906 34.0484
ltoes 14.2622
223
root 8.44018 15.5768 19.276 -147.459 8.49675 172.339
lowerback 3.10788 -3.06956 -2.63229
upperback 6.61562 -3.48658 -1.91573
thorax 5.1567 -1.59123 -0.548745
lowerneck -2.45385 -4.80149 2.01595
upperneck 8.21815 -6.53241 1.62032
head 3.0388 -3.07298 -0.0400584
rclavicle -3.37934e-014 9.34288e-015
rhumerus -12.1005 9.83979 -59.8407
rradius 49.7831
rwrist -11.4166
rhand -9.75715 -44.8837
rfingers 7.12502
rthumb 16.2175 -74.2254
lclavicle -3.37934e-014 9.34288e-015
lhumerus -11.8435 -19.4267 67.3572
lradius 59.4349
lwrist 10.4162
lhand -27.4248 -14.0422
lfingers 7.12502
lthumb -0.830395 15.936
rfemur -83.5484 -14.5701 6.29305
rtibia 77.488
rfoot -33.458 -9.50475
rtoes -29.8519
lfemur -23.9489 -17.0531 11.2567
ltibia 11.5491
lfoot 5.71674 36.4148
ltoes 21.8403
224
root 8.54904 15.6548 19.2488 -147.144 7.95618 171.86
lowerback 2.70547 -3.15649 -2.45604
upperback 6.57499 -3.6057 -1.87861
thorax 5.33303 -1.64873 -0.630733
lowerneck -2.42234 -4.90192 1.76644
upperneck 8.26844 -6.6611 1.74955
head 3.06435 -3.13833 0.0387864
rclavicle -6.70898e-014 -8.24956e-015
rhumerus -11.9024 9.58023 -59.5333
rradius 49.8396
rwrist -11.5713
rhand -10.5766 -44.7755
rfingers 7.12502
rthumb 15.4283 -74.1798
lclavicle -6.70898e-014 -8.24956e-015
lhumerus -12.1599 -18.9136 67.5693
lradius 59.8965
lwrist 10.82
lhand -26.8516 -14.4996
lfingers 7.12502
lthumb -0.276788 15.4799
rfemur -83.1096 -14.8525 6.38338
rtibia 76.822
rfoot -33.5211 -9.76284
rtoes -29.4126
lfemur -24.4321 -18.4668 11.9596
ltibia 10.3936
lfoot 2.10056 38.3601
ltoes 31.4416
225
root 8.65708 15.7324 19.2243 -146.81 7.48824 171.467
lowerback 2.35625 -3.31059 -2.42088
upperback 6.39826 -3.84772 -1.68184
thorax 5.35705 -1.78632 -0.467038
lowerneck -2.21783 -4.551 1.23087
upperneck 8.56891 -6.12347 1.48224
head 3.13662 -2.88607 0.0628743
rclavicle 8.84592e-015 -4.12478e-014
rhumerus -11.7297 9.83638 -59.1731
rradius 49.8994
rwrist -11.6993
rhand -11.1223 -44.2884
rfingers 7.12502
rthumb 14.9027 -73.7324
lclavicle 8.84592e-015 -4.12478e-014
lhumerus -13.0607 -18.098 68.1745
lradius 60.3686
lwrist 10.8954
lhand -26.894 -14.5997
lfingers 7.12502
lthumb -0.317687 15.3799
rfemur -82.7655 -15.011 6.54787
rtibia 76.2108
rfoot -33.6122 -9.98758
rtoes -28.9377
lfemur -25.0707 -19.2682 12.5429
ltibia 9.77772
lfoot -0.267856 39.8873
ltoes 34.131
226
root 8.76093 15.8078 19.2026 -146.394 7.18992 171.141
lowerback 2.05726 -3.67453 -2.77379
upperback 5.87757 -4.4351 -1.13814
thorax 5.05709 -2.13881 0.270937
lowerneck -1.15896 -4.34946 -0.544449
upperneck 8.42536 -5.76094 1.82978
head 2.96161 -2.74938 0.513982
rclavicle -1.73937e-014 -7.45443e-016
rhumerus -11.3522 11.2891 -58.5597
rradius 49.8615
rwrist -11.7908
rhand -11.1453 -44.4723
rfingers 7.12502
rthumb 14.8805 -73.9178
lclavicle -1.73937e-014 -7.45443e-016
lhumerus -15.0406 -16.3906 69.4321
lradius 60.8069
lwrist 10.7504
lhand -27.0037 -14.412
lfingers 7.12502
lthumb -0.42364 15.5673
rfemur -82.5997 -14.9696 6.66325
rtibia 75.7196
rfoot -33.7832 -10.0115
rtoes -28.0367
lfemur -25.8371 -19.3954 12.9161
ltibia 9.63184
lfoot -2.01998 41.2477
ltoes 34.0166
227
root 8.86127 15.8826 19.1805 -146.028 7.01141 170.923
lowerback 1.92229 -2.98555 -2.19594
upperback 6.01875 -3.46862 -1.63049
thorax 5.1838 -1.6084 -0.53907
lowerneck -2.23319 -4.97039 1.03046
upperneck 8.48028 -6.70475 1.84484
head 3.13331 -3.17076 0.193544
rclavicle 2.22639e-014 -1.53561e-014
rhumerus -12.2269 8.35719 -58.9001
rradius 49.9907
rwrist -11.5067
rhand -11.1342 -45.1884
rfingers 7.12502
rthumb 14.8912 -74.6332
lclavicle 2.22639e-014 -1.53561e-014
lhumerus -13.8947 -18.1878 69.1445
lradius 60.9016
lwrist 11.1014
lhand -27.0753 -14.064
lfingers 7.12502
lthumb -0.492779 15.9152
rfemur -82.3614 -14.7961 6.81988
rtibia 75.0799
rfoot -33.6949 -9.88311
rtoes -27.2537
lfemur -26.5316 -19.0645 13.0556
ltibia 9.8552
lfoot -2.56933 41.992
ltoes 34.2813
228
root 8.95972 15.9614 19.1568 -145.918 6.81481 170.736
lowerback 1.76612 -2.64111 -1.90474
upperback 6.0253 -2.99487 -1.84819
thorax 5.24599 -1.35154 -0.919064
lowerneck -2.17298 -5.16219 1.76572
upperneck 8.32284 -6.98702 1.73797
head 3.03604 -3.2958 0.0315069
rclavicle 3.79679e-014 6.26172e-015
rhumerus -12.7612 6.83783 -59.1034
rradius 50.0385
rwrist -11.2721
rhand -11.0847 -45.114
rfingers 7.12502
rthumb 14.9389 -74.5553
lclavicle 3.79679e-014 6.26172e-015
lhumerus -13.9083 -18.8522 69.2899
lradius 61.1969
lwrist 11.3855
lhand -27.0331 -14.1146
lfingers 7.12502
lthumb -0.452086 15.8646
rfemur -81.7514 -14.5793 6.94062
rtibia 74.3063
rfoot -33.6047 -9.55807
rtoes -26.0758
lfemur -27.0593 -18.2146 12.786
ltibia 10.471
lfoot 1.5453 41.92
ltoes 30.1562
229
root 9.05549 16.0403 19.1346 -145.911 6.6449 170.6
lowerback 1.36787 -2.72011 -1.79393
upperback 6.19777 -3.08377 -1.76113
thorax 5.65396 -1.39041 -0.917724
lowerneck -2.38733 -5.02585 1.18747
upperneck 8.45873 -6.7955 1.88587
head 3.15107 -3.20943 0.173026
rclavicle -9.93923e-016 -1.78906e-014
rhumerus -12.2917 6.79925 -59.0908
rradius 50.0564
rwrist -11.0085
rhand -11.0126 -45.4477
rfingers 7.12502
rthumb 15.0084 -74.8838
lclavicle -9.93923e-016 -1.78906e-014
lhumerus -14.3635 -18.082 69.6702
lradius 61.4437
lwrist 11.5125
lhand -26.8851 -14.557
lfingers 7.12502
lthumb -0.309085 15.4225
rfemur -81.0826 -14.2734 7.0494
rtibia 73.6239
rfoot -33.6743 -9.32288
rtoes -25.2411
lfemur -27.6425 -16.4971 12.1059
ltibia 11.6905
lfoot 8.45038 40.1999
ltoes 23.2837
230
root 9.14827 16.1144 19.1131 -145.79 6.62332 170.59
lowerback 1.24865 -2.55407 -1.80728
upperback 6.25415 -2.86468 -1.63355
thorax 5.78905 -1.28713 -0.777287
lowerneck -2.99501 -5.09566 0.995446
upperneck 8.72759 -6.90098 1.87182
head 3.36666 -3.26123 0.174748
rclavicle -1.17283e-014 -8.15017e-015
rhumerus -12.3645 6.77333 -58.8664
rradius 50.4277
rwrist -11.2573
rhand -11.057 -45.7338
rfingers 7.12502
rthumb 14.9656 -75.1731
lclavicle -1.17283e-014 -8.15017e-015
lhumerus -14.6171 -17.8552 70.1802
lradius 61.5712
lwrist 11.5475
lhand -26.7493 -14.6361
lfingers 7.12502
lthumb -0.177942 15.3436
rfemur -80.6446 -13.8724 7.29534
rtibia 72.9296
rfoot -33.5294 -9.22957
rtoes -25.3615
lfemur -28.3803 -14.1203 11.1989
ltibia 13.502
lfoot 13.0892 37.5347
ltoes 20.018
231
root 9.23551 16.1894 19.0905 -145.661 6.70549 170.575
lowerback 1.02106 -2.86581 -2.31436
upperback 5.81589 -3.36963 -1.04446
thorax 5.52444 -1.60593 0.0931855
lowerneck -1.65167 -4.63282 -0.690713
upperneck 8.47534 -6.14333 1.87415
head 3.08355 -2.94081 0.528218
rclavicle -2.40529e-014 -2.98177e-015
rhumerus -12.1533 9.09366 -58.3088
rradius 50.6896
rwrist -11.9722
rhand -10.8352 -45.6009
rfingers 7.12502
rthumb 15.1793 -75.0241
lclavicle -2.40529e-014 -2.98177e-015
lhumerus -16.7307 -16.0559 71.4438
lradius 61.8731
lwrist 11.5092
lhand -26.5877 -14.4455
lfingers 7.12502
lthumb -0.021851 15.5342
rfemur -80.1976 -13.4974 7.54244
rtibia 72.1367
rfoot -33.2887 -9.00215
rtoes -25.3963
lfemur -29.239 -11.6233 10.0414
ltibia 15.8323
lfoot 13.7207 35.5629
ltoes 18.2486
